PathFileType  4	(X/Y/Z) /root/TVB/SAM4Dcap/opencap/output/Data/subject2_Session0/MarkerData/mmpose_0.8/2-cameras/PreAugmentation
DataRate	CameraRate	NumFrames	NumMarkers	Units	OrigDataRate	OrigDataStartFrame	OrigNumFrames
60.0	60.0	15	20	m	60.0	83	164
Frame#	Time	Neck			RShoulder			RElbow			RWrist			LShoulder			LElbow			LWrist			midHip			RHip			RKnee			RAnkle			LHip			LKnee			LAnkle			LBigToe			LSmallToe			LHeel			RBigToe			RSmallToe			RHeel			
		X1	Y1	Z1	X2	Y2	Z2	X3	Y3	Z3	X4	Y4	Z4	X5	Y5	Z5	X6	Y6	Z6	X7	Y7	Z7	X8	Y8	Z8	X9	Y9	Z9	X10	Y10	Z10	X11	Y11	Z11	X12	Y12	Z12	X13	Y13	Z13	X14	Y14	Z14	X15	Y15	Z15	X16	Y16	Z16	X17	Y17	Z17	X18	Y18	Z18	X19	Y19	Z19	X20	Y20	Z20	

83	1.3666667	0.7230400	1.3578500	-0.3388700	0.7144600	1.3697300	-0.1698400	0.5142100	1.3283900	0.0618500	0.5830100	1.1213100	0.1074200	0.7469400	1.3433400	-0.5085600	0.6176500	1.1989900	-0.7355000	0.8385200	1.0755100	-0.6640900	0.5885400	0.8302400	-0.2947200	0.5923700	0.8346600	-0.1758500	0.7284800	0.4004800	-0.1380000	0.6599400	-0.1120800	-0.0979500	0.5926600	0.8257200	-0.4144000	0.7366400	0.4062800	-0.4755400	0.7005700	-0.1112800	-0.5018500	0.8242700	-0.2367800	-0.5471000	0.8206600	-0.2336600	-0.5465700	0.6608400	-0.1416400	-0.4740800	0.7915300	-0.2139900	-0.0697800	0.7870000	-0.2114200	-0.0699000	0.6104300	-0.1482500	-0.1079500
84	1.3833333	0.7457500	1.3298500	-0.3408500	0.7323800	1.3423000	-0.1714700	0.5290800	1.3088600	0.0565100	0.5842200	1.1016400	0.1028800	0.7743500	1.3149600	-0.5107200	0.6344300	1.1693900	-0.7359100	0.8443600	1.0457200	-0.6637100	0.6076100	0.7972100	-0.2931400	0.6124000	0.8030200	-0.1734700	0.7479800	0.3733700	-0.1370400	0.6945200	-0.1363300	-0.0987200	0.6108500	0.7914400	-0.4136600	0.7513500	0.3735300	-0.4796700	0.7413700	-0.1490000	-0.5074400	0.8791200	-0.2680800	-0.5553000	0.8758300	-0.2656100	-0.5545800	0.6927600	-0.1835100	-0.4860700	0.8049500	-0.2436700	-0.0546500	0.7998900	-0.2401500	-0.0549200	0.6517100	-0.1702200	-0.1148700
85	1.4000000	0.7557500	1.3005000	-0.3389200	0.7426800	1.3154500	-0.1677400	0.5369700	1.2841500	0.0464100	0.5880100	1.0747100	0.0962700	0.7843800	1.2834200	-0.5106600	0.6480600	1.1421200	-0.7339700	0.8570000	1.0081800	-0.6620400	0.6264700	0.7632300	-0.2951600	0.6278100	0.7690200	-0.1759800	0.7671900	0.3392100	-0.1368700	0.7250900	-0.1653600	-0.0940600	0.6330500	0.7570700	-0.4151200	0.7646100	0.3341100	-0.4824100	0.7811900	-0.1788300	-0.5132400	0.9190100	-0.2958800	-0.5609500	0.9156500	-0.2932400	-0.5602200	0.7445000	-0.2128100	-0.4848000	0.8342300	-0.2746400	-0.0435200	0.8291600	-0.2707300	-0.0438300	0.6836900	-0.2038600	-0.1091700
86	1.4166667	0.7721100	1.2644600	-0.3402300	0.7546300	1.2774000	-0.1711700	0.5450700	1.2511000	0.0371400	0.5910800	1.0440800	0.0882900	0.8045200	1.2491300	-0.5096300	0.6600000	1.1107100	-0.7333100	0.8642100	0.9740900	-0.6618400	0.6439300	0.7266700	-0.2925200	0.6473300	0.7327300	-0.1742500	0.7884500	0.3068000	-0.1361400	0.7520600	-0.2042400	-0.0879900	0.6482800	0.7203000	-0.4116000	0.7833800	0.3000000	-0.4799700	0.8165500	-0.2183100	-0.5221300	0.9494500	-0.3299600	-0.5707700	0.9462200	-0.3277800	-0.5698500	0.7726500	-0.2543400	-0.5005000	0.8854300	-0.3024200	-0.0521700	0.8804700	-0.2998300	-0.0525100	0.7079200	-0.2453800	-0.0976800
87	1.4333333	0.7888500	1.2294000	-0.3397700	0.7651200	1.2443700	-0.1719700	0.5587200	1.2084800	0.0262000	0.6000100	1.0077100	0.0824800	0.8270600	1.2123300	-0.5076900	0.6728000	1.0791700	-0.7297500	0.8683500	0.9368600	-0.6570900	0.6590100	0.6906800	-0.2947400	0.6623700	0.6981100	-0.1755000	0.8055500	0.2732500	-0.1318600	0.7829000	-0.2434800	-0.0867200	0.6635600	0.6836200	-0.4148400	0.8030800	0.2632000	-0.4777200	0.8489900	-0.2607300	-0.5295700	0.9905000	-0.3640300	-0.5714200	0.9863000	-0.3613600	-0.5708600	0.8046400	-0.2978100	-0.5113700	0.9207300	-0.3367200	-0.0506000	0.9152200	-0.3338500	-0.0511000	0.7438700	-0.2820300	-0.0999700
88	1.4500000	0.7972400	1.1847600	-0.3411200	0.7709100	1.1966500	-0.1745700	0.5789200	1.1540000	0.0233400	0.6137900	0.9638000	0.0737000	0.8377800	1.1707000	-0.5076300	0.6878300	1.0316800	-0.7294000	0.8834900	0.8913700	-0.6506000	0.6800000	0.6475900	-0.2938500	0.6802100	0.6515200	-0.1753100	0.8296500	0.2274600	-0.1287800	0.8144200	-0.2793500	-0.0792900	0.6875600	0.6442200	-0.4131600	0.8295000	0.2199200	-0.4818500	0.8735000	-0.2974900	-0.5305600	1.0187600	-0.3968600	-0.5821800	1.0145900	-0.3941800	-0.5810400	0.8355900	-0.3370700	-0.5071200	0.9501500	-0.3702900	-0.0509700	0.9440600	-0.3676700	-0.0516800	0.7694800	-0.3242600	-0.0853000
89	1.4666667	0.8181500	1.1420300	-0.3386800	0.7928600	1.1543700	-0.1717800	0.5907200	1.1052100	0.0045500	0.6279000	0.9155700	0.0644600	0.8576400	1.1278900	-0.5056200	0.6989500	0.9907500	-0.7229400	0.8972200	0.8410700	-0.6457300	0.6997700	0.6020200	-0.2897100	0.7001400	0.6076800	-0.1697000	0.8519300	0.1899500	-0.1277100	0.8370000	-0.3123900	-0.0765400	0.7075100	0.5969500	-0.4105300	0.8553200	0.1845500	-0.4839700	0.8955800	-0.3373000	-0.5298900	1.0336800	-0.4284300	-0.5821700	1.0292600	-0.4264400	-0.5811900	0.8589500	-0.3779400	-0.5077500	0.9787900	-0.4067900	-0.0464200	0.9736100	-0.4043900	-0.0470400	0.7967500	-0.3580800	-0.0832300
90	1.4833333	0.8275100	1.0955400	-0.3386000	0.7972800	1.1057700	-0.1719700	0.5906400	1.0449500	-0.0059000	0.6433200	0.8580300	0.0574500	0.8716900	1.0839200	-0.5050900	0.7161700	0.9332900	-0.7178500	0.9039600	0.7962100	-0.6352300	0.7056600	0.5646700	-0.2898300	0.7044100	0.5710900	-0.1698700	0.8766900	0.1496800	-0.1264200	0.8650300	-0.3555100	-0.0713100	0.7150900	0.5589600	-0.4105900	0.8842600	0.1434600	-0.4850200	0.9168100	-0.3699300	-0.5257300	1.0484600	-0.4811100	-0.5834600	1.0448900	-0.4789400	-0.5821000	0.8797400	-0.4066800	-0.5037100	0.9995700	-0.4463300	-0.0366200	0.9941900	-0.4436000	-0.0371200	0.8271200	-0.3996800	-0.0826100
91	1.5000000	0.8484000	1.0438000	-0.3359900	0.8230000	1.0580300	-0.1641300	0.6051100	0.9702900	-0.0163400	0.6709100	0.7925700	0.0511300	0.8887000	1.0282800	-0.5079400	0.7324200	0.8712600	-0.7091800	0.9247600	0.7361200	-0.6273200	0.7189000	0.5283400	-0.2906400	0.7157300	0.5331300	-0.1723800	0.9063000	0.1096900	-0.1246300	0.8788100	-0.4054400	-0.0689700	0.7299100	0.5243500	-0.4096200	0.9165700	0.1109700	-0.4851800	0.9045800	-0.4132300	-0.5132000	1.0552400	-0.4848100	-0.5937900	1.0505800	-0.4826700	-0.5917900	0.8672200	-0.4557400	-0.4926100	1.0323900	-0.4850200	-0.0465400	1.0263600	-0.4831100	-0.0472700	0.8324900	-0.4514100	-0.0717500
92	1.5166667	0.8633200	0.9877000	-0.3339000	0.8374700	0.9972900	-0.1613900	0.6265300	0.8955500	-0.0185500	0.7015300	0.7181000	0.0436300	0.9041500	0.9772300	-0.5064800	0.7447900	0.8031100	-0.7104100	0.9408400	0.6786200	-0.6167600	0.7362100	0.4784100	-0.2911300	0.7312500	0.4817500	-0.1731300	0.9431300	0.0768000	-0.1237200	0.8664800	-0.4222200	-0.0834400	0.7490300	0.4751400	-0.4098000	0.9556800	0.0868500	-0.4833400	0.8904300	-0.4325100	-0.5044500	1.0575000	-0.4868200	-0.5941400	1.0535400	-0.4847400	-0.5925500	0.8538800	-0.4758900	-0.4868200	1.0317400	-0.4825800	-0.0399400	1.0263900	-0.4815100	-0.0407100	0.8216000	-0.4729800	-0.0893100
93	1.5333333	0.8799300	0.9341300	-0.3333000	0.8579500	0.9420100	-0.1589200	0.6414400	0.8121200	-0.0259900	0.7329500	0.6416400	0.0342400	0.9172900	0.9251000	-0.5079100	0.7547200	0.7431300	-0.7000200	0.9522300	0.6175500	-0.6063200	0.7366600	0.4464000	-0.2853900	0.7298300	0.4508200	-0.1643100	0.9901100	0.0671000	-0.1268500	0.8657000	-0.4244300	-0.0888400	0.7519900	0.4428300	-0.4071600	0.9990700	0.0754100	-0.4879000	0.8944900	-0.4300800	-0.5043500	1.0593500	-0.4849700	-0.5936600	1.0554700	-0.4829000	-0.5922100	0.8515300	-0.4725700	-0.4908600	1.0360200	-0.4821300	-0.0418600	1.0310500	-0.4810300	-0.0426300	0.8159000	-0.4749400	-0.0917800
94	1.5500000	0.8925100	0.8826200	-0.3324000	0.8680200	0.8903000	-0.1614500	0.6569000	0.7355900	-0.0303600	0.7710800	0.5655900	0.0206700	0.9316900	0.8740000	-0.5034800	0.7795200	0.6737700	-0.6911600	0.9657200	0.5555500	-0.6069400	0.7459400	0.3986700	-0.2892000	0.7411800	0.4031700	-0.1696000	1.0328200	0.0694300	-0.1311800	0.8810300	-0.4222100	-0.0871800	0.7592000	0.3948200	-0.4094900	1.0375600	0.0723200	-0.4918500	0.9027600	-0.4253200	-0.4998400	1.0631400	-0.4856300	-0.5946500	1.0597100	-0.4839100	-0.5929900	0.8592800	-0.4662900	-0.4864000	1.0435900	-0.4837400	-0.0424300	1.0390700	-0.4825600	-0.0430200	0.8254100	-0.4700900	-0.0919300
95	1.5666667	0.9171800	0.8323100	-0.3327500	0.8969800	0.8372300	-0.1677900	0.6855700	0.6606700	-0.0250600	0.8194600	0.4908500	0.0130400	0.9512200	0.8274300	-0.4979800	0.8081700	0.6155400	-0.6750400	1.0091500	0.4998800	-0.5721800	0.7594100	0.3664900	-0.2945600	0.7560700	0.3699300	-0.1800800	1.0645600	0.0661900	-0.1298700	0.8902100	-0.4062500	-0.0914200	0.7702200	0.3653000	-0.4098000	1.0650800	0.0727100	-0.5012000	0.9091200	-0.4148400	-0.4948400	1.0613000	-0.4832300	-0.5923500	1.0583000	-0.4811700	-0.5908300	0.8667800	-0.4531400	-0.4799000	1.0395300	-0.4831000	-0.0412200	1.0355900	-0.4815900	-0.0419400	0.8332100	-0.4499700	-0.0962500
96	1.5833333	0.9399000	0.7905400	-0.3312200	0.9254100	0.7936300	-0.1684300	0.7085400	0.5843300	-0.0298000	0.8850600	0.4212200	0.0033300	0.9680100	0.7873200	-0.4945000	0.8406100	0.5573100	-0.6651800	1.0436000	0.4439000	-0.5592500	0.7602500	0.3518100	-0.2939900	0.7607800	0.3568600	-0.1763400	1.0893000	0.0579400	-0.1282600	0.8946900	-0.4048100	-0.0912200	0.7679300	0.3483200	-0.4124200	1.0778900	0.0619100	-0.5028200	0.9072500	-0.4229800	-0.4993200	1.0661700	-0.4861900	-0.5936300	1.0630900	-0.4843500	-0.5921300	0.8648800	-0.4607000	-0.4820600	1.0400700	-0.4845000	-0.0399700	1.0365300	-0.4828800	-0.0404900	0.8347900	-0.4454000	-0.0972200
97	1.6000000	0.9514900	0.7470800	-0.3334000	0.9386900	0.7488900	-0.1743800	0.7614800	0.5167100	-0.0193500	0.9542600	0.3633000	-0.0144000	0.9775100	0.7449400	-0.4929600	0.8761200	0.4992400	-0.6533400	1.0765800	0.4019100	-0.5450800	0.7685100	0.3209800	-0.2974000	0.7703700	0.3255500	-0.1812300	1.1017600	0.0443500	-0.1227500	0.8964100	-0.3973000	-0.1056800	0.7747900	0.3170700	-0.4143600	1.0867600	0.0436200	-0.5078300	0.9004100	-0.4233200	-0.4986500	1.0607300	-0.4872000	-0.5939800	1.0582000	-0.4856500	-0.5929800	0.8595300	-0.4615000	-0.4825100	1.0460100	-0.4842000	-0.0402700	1.0434600	-0.4830600	-0.0407900	0.8364800	-0.4397100	-0.1114500
